<svg width="26" height="22" viewBox="0 0 26 22" fill="none" xmlns="http://www.w3.org/2000/svg">
<g id="Group">
<path id="Vector" d="M13.0116 12.9045C16.3018 12.9045 18.9578 10.2458 18.9578 6.95224C18.9578 3.65867 16.3018 1 13.0116 1C9.72146 1 7.06552 3.65867 7.06552 6.95224C7.06552 10.2458 9.72146 12.9045 13.0116 12.9045ZM13.0116 2.78567C15.3108 2.78567 17.1739 4.65071 17.1739 6.95224C17.1739 9.25378 15.3108 11.1188 13.0116 11.1188C10.7125 11.1188 8.84936 9.25378 8.84936 6.95224C8.84936 4.65071 10.7125 2.78567 13.0116 2.78567Z" fill="#96C486" stroke="#96C486" stroke-width="0.8"/>
<path id="Vector_2" d="M24.7057 19.4123C21.4551 16.6742 17.3325 15.1663 13.0116 15.1663C8.69079 15.1663 4.56814 16.6742 1.31759 19.4123C0.960823 19.7297 0.881541 20.2853 1.19867 20.6821C1.51579 21.0392 2.07077 21.1186 2.46717 20.8011C5.4006 18.3012 9.12684 16.952 13.0116 16.952C16.8964 16.952 20.6227 18.3012 23.5165 20.7614C23.675 20.9202 23.8732 20.9598 24.1111 20.9598C24.3489 20.9598 24.6264 20.8408 24.785 20.6424C25.1021 20.2852 25.0625 19.7297 24.7057 19.4123Z" fill="#96C486" stroke="#96C486" stroke-width="0.8"/>
</g>
</svg>
