<svg width="30" height="28" viewBox="0 0 30 28" fill="none" xmlns="http://www.w3.org/2000/svg">
<g id="icon-park-solid:local-two">
<g id="Mask group">
<mask id="mask0_48_1227" style="mask-type:luminance" maskUnits="userSpaceOnUse" x="3" y="0" width="24" height="28">
<g id="Group">
<g id="Group_2">
<path id="Vector" d="M15 25.6666C15 25.6666 24.375 18.6666 24.375 11.0833C24.375 6.25098 20.1775 2.33331 15 2.33331C9.8225 2.33331 5.625 6.25098 5.625 11.0833C5.625 18.6666 15 25.6666 15 25.6666Z" fill="white" stroke="white" stroke-width="4" stroke-linejoin="round"/>
<path id="Vector_2" d="M15 14.5833C15.4925 14.5833 15.9801 14.4928 16.4351 14.3169C16.89 14.141 17.3034 13.8832 17.6517 13.5582C17.9999 13.2332 18.2761 12.8473 18.4645 12.4227C18.653 11.9981 18.75 11.5429 18.75 11.0833C18.75 10.6237 18.653 10.1686 18.4645 9.74392C18.2761 9.31928 17.9999 8.93344 17.6517 8.60844C17.3034 8.28343 16.89 8.02563 16.4351 7.84973C15.9801 7.67384 15.4925 7.58331 15 7.58331C14.0054 7.58331 13.0516 7.95206 12.3483 8.60844C11.6451 9.26482 11.25 10.1551 11.25 11.0833C11.25 12.0116 11.6451 12.9018 12.3483 13.5582C13.0516 14.2146 14.0054 14.5833 15 14.5833Z" fill="black" stroke="black" stroke-width="4" stroke-linejoin="round"/>
</g>
</g>
</mask>
<g mask="url(#mask0_48_1227)">
<path id="Vector_3" d="M0 0H30V28H0V0Z" fill="#8B8B8B"/>
</g>
</g>
</g>
</svg>
