<svg width="56" height="57" viewBox="0 0 56 57" fill="none" xmlns="http://www.w3.org/2000/svg">
<g id="dashicons:privacy">
<path id="Vector" d="M27.9999 27.36C26.3199 27.36 25.1999 28.5 25.1999 30.21C25.1999 31.35 26.0399 32.2049 26.8799 32.4899L26.0399 36.4799H29.6799L28.8399 32.4899C29.9599 32.2049 30.5199 31.35 30.5199 30.21C30.7999 28.5 29.6799 27.36 27.9999 27.36ZM28.2799 15.105C26.3199 15.105 24.3599 16.53 24.3599 18.525V22.7999H31.9199V18.525C31.6399 16.53 30.2399 15.105 28.2799 15.105ZM27.9999 5.69995L8.3999 14.25V22.7999C8.6799 35.34 16.5199 46.4549 27.9999 51.0149C39.4799 46.4549 47.3199 35.34 47.5999 22.7999V14.25L27.9999 5.69995ZM39.1999 37.0499C39.1999 38.7599 38.0799 39.8999 36.3999 39.8999H19.5999C17.9199 39.8999 16.7999 38.7599 16.7999 37.0499V25.65C16.7999 23.94 17.9199 22.7999 19.5999 22.7999H20.4399V18.525C20.7199 14.535 24.0799 11.4 27.9999 11.4C31.9199 11.4 35.2799 14.535 35.5599 18.525V22.7999H36.3999C38.0799 22.7999 39.1999 23.94 39.1999 25.65V37.0499Z" fill="black"/>
</g>
</svg>
