<svg width="24" height="25" viewBox="0 0 24 25" fill="none" xmlns="http://www.w3.org/2000/svg">
<g id="iconoir:hand-card">
<g id="Group">
<path id="Vector" d="M11 9.5H22M2 11.5L4.807 8.343C5.18228 7.92068 5.64276 7.58266 6.15812 7.35117C6.67348 7.11969 7.23204 7.00001 7.797 7H8M2 20H7.5L11.5 17C11.5 17 12.31 16.453 13.5 15.5C16 13.5 13.5 10.334 11 12C8.964 13.357 7 14.5 7 14.5" stroke="#414040" stroke-width="1.5" stroke-linecap="round" stroke-linejoin="round"/>
<path id="Vector_2" d="M8 14V7.5C8 6.96957 8.21071 6.46086 8.58579 6.08579C8.96086 5.71071 9.46957 5.5 10 5.5H20C20.5304 5.5 21.0391 5.71071 21.4142 6.08579C21.7893 6.46086 22 6.96957 22 7.5V13.5C22 14.0304 21.7893 14.5391 21.4142 14.9142C21.0391 15.2893 20.5304 15.5 20 15.5H13.5" stroke="#414040" stroke-width="1.5"/>
</g>
</g>
</svg>
