<svg width="28" height="27" viewBox="0 0 28 27" fill="none" xmlns="http://www.w3.org/2000/svg">
<g id="Group 1147">
<path id="Vector" d="M3.3271 21.2594V7.86724H23.5607V11.8727C24.4713 12.1406 25.3312 12.5301 26.09 13.0537V7.86724C26.09 6.51586 24.9645 5.43231 23.5607 5.43231H18.5023V2.99737C18.5023 1.64599 17.3768 0.562439 15.9731 0.562439H10.9147C9.51101 0.562439 8.38551 1.64599 8.38551 2.99737V5.43231H3.3271C1.92339 5.43231 0.810543 6.51586 0.810543 7.86724L0.797897 21.2594C0.797897 22.6108 1.92339 23.6943 3.3271 23.6943H13.0393C12.6599 22.9395 12.407 22.1238 12.2805 21.2594H3.3271ZM10.9147 2.99737H15.9731V5.43231H10.9147V2.99737Z" fill="#8B8B8B"/>
<path id="Vector_2" d="M21.0315 13.9544C17.5412 13.9544 14.7085 16.6815 14.7085 20.0417C14.7085 23.402 17.5412 26.1291 21.0315 26.1291C24.5218 26.1291 27.3546 23.402 27.3546 20.0417C27.3546 16.6815 24.5218 13.9544 21.0315 13.9544ZM23.1181 22.9028L20.3992 20.2852V16.3893H21.6638V19.7861L24.0034 22.0384L23.1181 22.9028Z" fill="#8B8B8B"/>
</g>
</svg>
