<svg width="25" height="24" viewBox="0 0 25 24" fill="none" xmlns="http://www.w3.org/2000/svg">
<g id="mdi:clipboard-text-history">
<path id="Vector" d="M21.375 11.11V5C21.375 4.46957 21.1643 3.96086 20.7892 3.58579C20.4141 3.21071 19.9054 3 19.375 3H15.195C14.775 1.84 13.675 1 12.375 1C11.075 1 9.975 1.84 9.555 3H5.375C4.275 3 3.375 3.9 3.375 5V19C3.375 19.5304 3.58571 20.0391 3.96079 20.4142C4.33586 20.7893 4.84457 21 5.375 21H11.485C12.745 22.24 14.465 23 16.375 23C20.245 23 23.375 19.87 23.375 16C23.375 14.09 22.615 12.37 21.375 11.11ZM12.375 3C12.925 3 13.375 3.45 13.375 4C13.375 4.55 12.925 5 12.375 5C11.825 5 11.375 4.55 11.375 4C11.375 3.45 11.825 3 12.375 3ZM6.375 7H18.375V9H6.375V7ZM9.455 17H6.375V15H9.455C9.405 15.33 9.375 15.66 9.375 16C9.375 16.34 9.405 16.67 9.455 17ZM6.375 13V11H11.485C10.875 11.57 10.415 12.25 10.055 13H6.375ZM16.375 21C13.615 21 11.375 18.76 11.375 16C11.375 13.24 13.615 11 16.375 11C19.135 11 21.375 13.24 21.375 16C21.375 18.76 19.135 21 16.375 21ZM16.875 16.25L19.735 17.94L18.985 19.16L15.375 17V12H16.875V16.25Z" fill="#96C486"/>
</g>
</svg>
