<svg width="25" height="24" viewBox="0 0 25 24" fill="none" xmlns="http://www.w3.org/2000/svg">
<g id="Icon">
<path id="Vector" d="M13.6031 3.42139C13.252 3.14828 12.8199 3 12.3751 3C11.9303 3 11.4982 3.14828 11.1471 3.42139L2.7631 9.94139C2.0111 10.5284 2.4251 11.7334 3.3781 11.7334H4.3751V19.7334C4.3751 20.2638 4.58582 20.7725 4.96089 21.1476C5.33596 21.5227 5.84467 21.7334 6.3751 21.7334H10.3751V15.7334C10.3751 15.203 10.5858 14.6942 10.9609 14.3192C11.336 13.9441 11.8447 13.7334 12.3751 13.7334C12.9055 13.7334 13.4142 13.9441 13.7893 14.3192C14.1644 14.6942 14.3751 15.203 14.3751 15.7334V21.7334H18.3751C18.9055 21.7334 19.4142 21.5227 19.7893 21.1476C20.1644 20.7725 20.3751 20.2638 20.3751 19.7334V11.7334H21.3721C22.3241 11.7334 22.7401 10.5284 21.9871 9.94239L13.6031 3.42139Z" fill="#96C486"/>
</g>
</svg>
