<svg width="29" height="29" viewBox="0 0 29 29" fill="none" xmlns="http://www.w3.org/2000/svg">
<g id="material-symbols:info-outline">
<path id="Vector" d="M13.2917 20.5417H15.7083V13.2917H13.2917V20.5417ZM14.5 10.875C14.8424 10.875 15.1295 10.759 15.3615 10.527C15.5935 10.295 15.7091 10.0082 15.7083 9.66666C15.7083 9.3243 15.5923 9.03752 15.3603 8.80632C15.1283 8.57513 14.8416 8.45913 14.5 8.45832C14.1576 8.45832 13.8709 8.57432 13.6397 8.80632C13.4085 9.03832 13.2925 9.3251 13.2917 9.66666C13.2917 10.009 13.4077 10.2962 13.6397 10.5282C13.8717 10.7602 14.1584 10.8758 14.5 10.875ZM14.5 26.5833C12.8285 26.5833 11.2576 26.2659 9.7875 25.6312C8.31736 24.9964 7.03854 24.1356 5.95104 23.0489C4.86354 21.9614 4.00281 20.6826 3.36883 19.2125C2.73486 17.7424 2.41747 16.1715 2.41667 14.5C2.41667 12.8285 2.73406 11.2576 3.36883 9.78749C4.00361 8.31735 4.86435 7.03853 5.95104 5.95103C7.03854 4.86353 8.31736 4.0028 9.7875 3.36882C11.2576 2.73485 12.8285 2.41746 14.5 2.41666C16.1715 2.41666 17.7424 2.73405 19.2125 3.36882C20.6826 4.0036 21.9615 4.86434 23.049 5.95103C24.1365 7.03853 24.9976 8.31735 25.6324 9.78749C26.2672 11.2576 26.5841 12.8285 26.5833 14.5C26.5833 16.1715 26.2659 17.7424 25.6312 19.2125C24.9964 20.6826 24.1357 21.9614 23.049 23.0489C21.9615 24.1364 20.6826 24.9976 19.2125 25.6324C17.7424 26.2671 16.1715 26.5841 14.5 26.5833ZM14.5 24.1667C17.1986 24.1667 19.4844 23.2302 21.3573 21.3573C23.2302 19.4844 24.1667 17.1986 24.1667 14.5C24.1667 11.8014 23.2302 9.51561 21.3573 7.6427C19.4844 5.76978 17.1986 4.83332 14.5 4.83332C11.8014 4.83332 9.51563 5.76978 7.64271 7.6427C5.76979 9.51561 4.83333 11.8014 4.83333 14.5C4.83333 17.1986 5.76979 19.4844 7.64271 21.3573C9.51563 23.2302 11.8014 24.1667 14.5 24.1667Z" fill="#8B8B8B"/>
</g>
</svg>
