<svg width="27" height="25" viewBox="0 0 27 25" fill="none" xmlns="http://www.w3.org/2000/svg">
<mask id="mask0_128_1233" style="mask-type:luminance" maskUnits="userSpaceOnUse" x="3" y="0" width="21" height="25">
<path d="M13.5 22.9167C13.5 22.9167 21.9375 16.6667 21.9375 9.89584C21.9375 5.58126 18.1597 2.08334 13.5 2.08334C8.84025 2.08334 5.0625 5.58126 5.0625 9.89584C5.0625 16.6667 13.5 22.9167 13.5 22.9167Z" fill="white" stroke="white" stroke-width="4" stroke-linejoin="round"/>
<path d="M13.5 13.0208C13.9432 13.0208 14.3821 12.94 14.7916 12.783C15.201 12.6259 15.5731 12.3957 15.8865 12.1056C16.1999 11.8154 16.4485 11.4709 16.6181 11.0917C16.7877 10.7126 16.875 10.3062 16.875 9.89584C16.875 9.48546 16.7877 9.0791 16.6181 8.69996C16.4485 8.32082 16.1999 7.97632 15.8865 7.68613C15.5731 7.39595 15.201 7.16577 14.7916 7.00872C14.3821 6.85167 13.9432 6.77084 13.5 6.77084C12.6049 6.77084 11.7464 7.10008 11.1135 7.68613C10.4806 8.27219 10.125 9.06704 10.125 9.89584C10.125 10.7246 10.4806 11.5195 11.1135 12.1056C11.7464 12.6916 12.6049 13.0208 13.5 13.0208Z" fill="black" stroke="black" stroke-width="4" stroke-linejoin="round"/>
</mask>
<g mask="url(#mask0_128_1233)">
<path d="M0 0H27V25H0V0Z" fill="#414040"/>
</g>
</svg>
