<svg width="29" height="37" viewBox="0 0 29 37" fill="none" xmlns="http://www.w3.org/2000/svg">
<path d="M14.5 36.4167C9.91597 32.3257 6.49247 28.5262 4.2295 25.0181C1.96653 21.51 0.834475 18.2623 0.833336 15.275C0.833336 10.7958 2.20741 7.22744 4.95554 4.5698C7.70368 1.91216 10.8852 0.583344 14.5 0.583344C18.116 0.583344 21.298 1.91216 24.0462 4.5698C26.7943 7.22744 28.1678 10.7958 28.1667 15.275C28.1667 18.2611 27.0346 21.5088 24.7705 25.0181C22.5064 28.5274 19.0829 32.3269 14.5 36.4167ZM9.375 20.2917H12.7917V15.3646H16.2083V20.2917H19.625V11.7813L14.5 8.19793L9.375 11.7813V20.2917Z" fill="#96C486"/>
</svg>
