<svg width="26" height="25" viewBox="0 0 26 25" fill="none" xmlns="http://www.w3.org/2000/svg">
<g id="solar:logout-2-linear">
<g id="Group">
<path id="Vector" d="M9.75217 7.29168C9.76517 5.02605 9.87025 3.79897 10.7022 2.99897C11.6545 2.08334 13.1863 2.08334 16.25 2.08334H17.3333C20.3981 2.08334 21.9299 2.08334 22.8822 2.99897C23.8333 3.91355 23.8333 5.38751 23.8333 8.33334V16.6667C23.8333 19.6125 23.8333 21.0865 22.8822 22.0011C21.9288 22.9167 20.3981 22.9167 17.3333 22.9167H16.25C13.1863 22.9167 11.6545 22.9167 10.7022 22.0011C9.87025 21.2011 9.76517 19.974 9.75217 17.7083" stroke="#8B8B8B" stroke-width="1.5" stroke-linecap="round"/>
<path id="Vector_2" d="M16.25 12.5H2.16667M2.16667 12.5L5.95833 9.375M2.16667 12.5L5.95833 15.625" stroke="#8B8B8B" stroke-width="1.5" stroke-linecap="round" stroke-linejoin="round"/>
</g>
</g>
</svg>
