<svg width="27" height="30" viewBox="0 0 27 30" fill="none" xmlns="http://www.w3.org/2000/svg">
<path id="Vector" d="M26.5115 9.8519V21.5648C26.5115 22.9964 25.3354 24.1676 23.898 24.1676H5.60337L0.376343 29.3734V5.94761C0.376343 4.51603 1.55242 3.34474 2.98986 3.34474H16.1881C16.0574 3.73517 16.0574 4.25575 16.0574 4.64618C16.0574 5.0366 16.0574 5.55718 16.1881 5.94761H2.98986V21.5648H23.898V11.0232C24.8127 10.893 25.7274 10.3725 26.5115 9.8519ZM18.6709 4.64618C18.6709 6.85861 20.3697 8.55047 22.5912 8.55047C24.8127 8.55047 26.5115 6.85861 26.5115 4.64618C26.5115 2.43374 24.8127 0.741882 22.5912 0.741882C20.3697 0.741882 18.6709 2.43374 18.6709 4.64618Z" fill="#8B8B8B"/>
</svg>
