<svg width="40" height="35" viewBox="0 0 40 35" fill="none" xmlns="http://www.w3.org/2000/svg">
<g id="vaadin:cash">
<path id="Vector" d="M40 30.625H5V28.4375H37.5V13.125H40V30.625Z" fill="#96C486"/>
<path id="Vector_2" d="M32.5 8.75V24.0625H2.5V8.75H32.5ZM35 6.5625H0V26.25H35V6.5625Z" fill="#96C486"/>
<path id="Vector_3" d="M7.5 13.125H5V19.6875H7.5V21.875H17.5C15.8424 21.875 14.2527 21.2988 13.0806 20.2732C11.9085 19.2477 11.25 17.8567 11.25 16.4062C11.25 14.9558 11.9085 13.5648 13.0806 12.5393C14.2527 11.5137 15.8424 10.9375 17.5 10.9375H7.5V13.125ZM27.5 13.125V10.9375H17.5C19.1576 10.9375 20.7473 11.5137 21.9194 12.5393C23.0915 13.5648 23.75 14.9558 23.75 16.4062C23.75 17.8567 23.0915 19.2477 21.9194 20.2732C20.7473 21.2988 19.1576 21.875 17.5 21.875H27.5V19.6875H30V13.125H27.5Z" fill="#96C486"/>
</g>
</svg>
