<svg width="30" height="22" viewBox="0 0 30 22" fill="none" xmlns="http://www.w3.org/2000/svg">
<path id="Vector" d="M20.6413 15.1335C20.3656 15.1335 20.1012 15.2437 19.9063 15.4397C19.7113 15.6358 19.6018 15.9018 19.6018 16.1791C19.6018 16.4565 19.7113 16.7224 19.9063 16.9185C20.1012 17.1146 20.3656 17.2248 20.6413 17.2248H24.7992C25.0749 17.2248 25.3393 17.1146 25.5342 16.9185C25.7291 16.7224 25.8387 16.4565 25.8387 16.1791C25.8387 15.9018 25.7291 15.6358 25.5342 15.4397C25.3393 15.2437 25.0749 15.1335 24.7992 15.1335H20.6413ZM0.891235 5.72264C0.891235 4.33602 1.43881 3.00619 2.41351 2.0257C3.38821 1.04522 4.71018 0.494385 6.08861 0.494385H24.7992C26.1776 0.494385 27.4996 1.04522 28.4743 2.0257C29.449 3.00619 29.9966 4.33602 29.9966 5.72264V16.1791C29.9966 17.5658 29.449 18.8956 28.4743 19.8761C27.4996 20.8566 26.1776 21.4074 24.7992 21.4074H6.08861C4.71018 21.4074 3.38821 20.8566 2.41351 19.8761C1.43881 18.8956 0.891235 17.5658 0.891235 16.1791V5.72264ZM27.9176 6.76829V5.72264C27.9176 4.89066 27.5891 4.09277 27.0042 3.50448C26.4194 2.91618 25.6262 2.58569 24.7992 2.58569H6.08861C5.26156 2.58569 4.46837 2.91618 3.88355 3.50448C3.29873 4.09277 2.97019 4.89066 2.97019 5.72264V6.76829H27.9176ZM2.97019 8.85959V16.1791C2.97019 17.0111 3.29873 17.809 3.88355 18.3973C4.46837 18.9856 5.26156 19.3161 6.08861 19.3161H24.7992C25.6262 19.3161 26.4194 18.9856 27.0042 18.3973C27.5891 17.809 27.9176 17.0111 27.9176 16.1791V8.85959H2.97019Z" fill="#8B8B8B"/>
</svg>
