<svg width="34" height="32" viewBox="0 0 34 32" fill="none" xmlns="http://www.w3.org/2000/svg">
<g id="mdi:person-tie">
<path id="Vector" d="M17 4C20.1308 4 22.6667 6.38667 22.6667 9.33333C22.6667 12.28 20.1308 14.6667 17 14.6667C13.8692 14.6667 11.3333 12.28 11.3333 9.33333C11.3333 6.38667 13.8692 4 17 4ZM22.6667 18.0533C22.6667 19.4667 22.27 22.76 19.5642 26.44L18.4167 20L19.7483 17.4933C18.87 17.4 17.9492 17.3333 17 17.3333C16.0508 17.3333 15.13 17.4 14.2517 17.4933L15.5833 20L14.4358 26.44C11.73 22.76 11.3333 19.4667 11.3333 18.0533C7.9475 18.9867 5.66667 20.6667 5.66667 22.6667V28H28.3333V22.6667C28.3333 20.6667 26.0667 18.9867 22.6667 18.0533Z" fill="#8B8B8B"/>
</g>
</svg>
