<svg width="46" height="48" viewBox="0 0 46 48" fill="none" xmlns="http://www.w3.org/2000/svg">
<g id="dashicons:privacy">
<path id="Vector" d="M23 23.04C21.62 23.04 20.7 24 20.7 25.44C20.7 26.4 21.39 27.12 22.08 27.36L21.39 30.72H24.38L23.69 27.36C24.61 27.12 25.07 26.4 25.07 25.44C25.3 24 24.38 23.04 23 23.04ZM23.23 12.72C21.62 12.72 20.01 13.92 20.01 15.6V19.2H26.22V15.6C25.99 13.92 24.84 12.72 23.23 12.72ZM23 4.79999L6.9 12V19.2C7.13 29.76 13.57 39.12 23 42.96C32.43 39.12 38.87 29.76 39.1 19.2V12L23 4.79999ZM32.2 31.2C32.2 32.64 31.28 33.6 29.9 33.6H16.1C14.72 33.6 13.8 32.64 13.8 31.2V21.6C13.8 20.16 14.72 19.2 16.1 19.2H16.79V15.6C17.02 12.24 19.78 9.59999 23 9.59999C26.22 9.59999 28.98 12.24 29.21 15.6V19.2H29.9C31.28 19.2 32.2 20.16 32.2 21.6V31.2Z" fill="#8B8B8B"/>
</g>
</svg>
