<svg width="24" height="24" viewBox="0 0 24 24" fill="none" xmlns="http://www.w3.org/2000/svg">
<g id="Group">
<path id="Vector" d="M22.9875 19.0078L18.075 14.0953C17.3625 13.3828 16.2 13.3453 15.4125 13.9828L13.5 12.0703C15.675 9.29531 15.4875 5.28281 12.9375 2.73281C10.2 -0.00468743 5.69996 -0.00468743 2.96246 2.73281C0.224957 5.47031 0.224957 9.97031 2.96246 12.7078C4.34996 14.0953 6.14996 14.7703 7.94996 14.7703C9.48746 14.7703 11.025 14.2828 12.3 13.2703L14.2125 15.1828C13.5375 15.9703 13.575 17.1328 14.325 17.8453L19.2375 22.7578C19.6125 23.1328 20.1375 23.3203 20.625 23.3203C21.1125 23.3203 21.6375 23.1328 22.0125 22.7578L22.9875 21.7828C23.7375 21.0328 23.7375 19.7953 22.9875 19.0078ZM4.12496 11.5453C2.02496 9.44531 2.02496 6.03281 4.12496 3.93281C5.17496 2.88281 6.56246 2.35781 7.91246 2.35781C9.26246 2.35781 10.65 2.88281 11.7 3.93281C13.8 6.03281 13.8 9.44531 11.7 11.5453C9.63746 13.6453 6.22496 13.6453 4.12496 11.5453ZM21.7875 20.6203L20.8125 21.5953C20.7 21.7078 20.5125 21.7078 20.4 21.5953L15.4875 16.6828C15.375 16.5703 15.375 16.3828 15.4875 16.2703L16.4625 15.2953C16.5 15.2578 16.575 15.2203 16.65 15.2203C16.725 15.2203 16.8 15.2578 16.8375 15.2953L21.75 20.2078C21.9 20.3203 21.9 20.5078 21.7875 20.6203Z" fill="#96C486"/>
<path id="Vector_2" d="M6.07496 7.23281H7.91246C8.36246 7.23281 8.77496 6.85781 8.77496 6.37031C8.77496 5.88281 8.39996 5.50781 7.91246 5.50781H6.07496C5.62496 5.50781 5.21246 5.88281 5.21246 6.37031C5.21246 6.85781 5.58746 7.23281 6.07496 7.23281Z" fill="#96C486"/>
<path id="Vector_3" d="M9.89996 8.32031H6.07496C5.62496 8.32031 5.21246 8.69531 5.21246 9.18281C5.21246 9.67031 5.58746 10.0453 6.07496 10.0453H9.89996C10.35 10.0453 10.7625 9.67031 10.7625 9.18281C10.7625 8.69531 10.35 8.32031 9.89996 8.32031Z" fill="#96C486"/>
</g>
</svg>
