<svg width="17" height="25" viewBox="0 0 17 25" fill="none" xmlns="http://www.w3.org/2000/svg">
<path id="Vector" d="M14.2193 2.95002H10.8735C10.269 2.9521 10.2916 3.92711 10.8735 3.92138H14.2193V4.41982H10.8735C10.2723 4.41409 10.2945 5.38858 10.8735 5.39118H14.2193V5.90056H10.8735C10.2723 5.90056 10.2945 6.87453 10.8735 6.87192H14.2193V7.35734H10.8735C10.2848 7.36203 10.2945 8.33704 10.8735 8.34016H14.2193V8.82662H10.8735C10.2848 8.82454 10.2824 9.79799 10.8735 9.79799H14.2193V10.2834H10.8735C10.2848 10.2855 10.2824 11.26 10.8735 11.2553H14.2193V11.7527H10.8735C10.2848 11.747 10.2824 12.7204 10.8735 12.724H14.2193V13.2084H10.8735C10.2848 13.2079 10.2945 14.1834 10.8735 14.1803H14.2193V23.6382C14.2212 25.0793 16.2442 25.0533 16.25 23.6382V1.50522C16.2442 0.846881 15.7446 0.0145834 14.9225 0.0119793H10.8735C10.269 0.0125001 10.2916 0.987507 10.8735 0.98334L14.2193 0.995319V1.4797H10.8735C10.2699 1.47657 10.2925 2.45106 10.8735 2.45158H14.2193V2.95002ZM10.6434 19.7178C10.6415 18.0355 9.03 16.2262 7.10467 17.398V10.9636L5.85946 0.351565C5.83347 0.0708338 5.6135 0.00468753 5.46573 0C5.31314 0.00468753 5.0075 0.0708338 4.97429 0.351565L3.73533 10.9636V17.398C1.81 16.2262 0.250481 18.047 0.25 19.7048C0.250481 21.1798 1.29979 22.3913 2.71972 22.3877C4.15024 22.3913 5.17933 21.0335 5.17933 19.7048V13.0209H5.66067V19.7048C5.66067 21.1923 6.72538 22.2934 7.90849 22.3632C7.88876 23.1788 8.13472 24.3424 8.59776 24.8038C9.14071 25.3455 9.78714 24.6528 9.52192 24.0887C9.26585 23.5637 9.0146 23.2528 9.21868 22.1064C10.0716 21.6793 10.6415 20.7804 10.6434 19.7178ZM2.77459 21.0413C2.45002 21.0413 2.13875 20.9018 1.90924 20.6534C1.67974 20.4051 1.5508 20.0683 1.5508 19.7171C1.5508 19.3659 1.67974 19.029 1.90924 18.7807C2.13875 18.5324 2.45002 18.3928 2.77459 18.3928C3.44172 18.397 3.98515 18.9892 3.98996 19.7178C3.98859 20.0669 3.86034 20.4015 3.63293 20.6491C3.40552 20.8967 3.0972 21.0376 2.77459 21.0413ZM6.9001 19.7178C6.90122 19.3684 7.02941 19.0335 7.25693 18.7856C7.48446 18.5376 7.79304 18.3965 8.11595 18.3928C8.43896 18.396 8.74779 18.5369 8.97535 18.785C9.2029 19.0331 9.33082 19.3683 9.33132 19.7178C9.33082 20.0672 9.20286 20.4023 8.97526 20.6501C8.74766 20.898 8.43883 21.0385 8.11595 21.0413C7.79314 21.0381 7.48448 20.8974 7.25689 20.6497C7.02929 20.402 6.9011 20.0672 6.9001 19.7178Z" fill="#96C486"/>
</svg>
