<svg width="28" height="31" viewBox="0 0 28 31" fill="none" xmlns="http://www.w3.org/2000/svg">
<path id="Vector" d="M14.4439 20.6703C13.1527 20.6703 11.9143 20.1284 11.0012 19.164C10.0882 18.1995 9.57523 16.8914 9.57523 15.5275C9.57523 14.1636 10.0882 12.8555 11.0012 11.891C11.9143 10.9266 13.1527 10.3847 14.4439 10.3847C15.7352 10.3847 16.9736 10.9266 17.8867 11.891C18.7997 12.8555 19.3127 14.1636 19.3127 15.5275C19.3127 16.8914 18.7997 18.1995 17.8867 19.164C16.9736 20.1284 15.7352 20.6703 14.4439 20.6703ZM24.7795 16.9528C24.8352 16.4826 24.8769 16.0124 24.8769 15.5275C24.8769 15.0426 24.8352 14.5577 24.7795 14.0581L27.7147 11.6631C27.979 11.4427 28.0485 11.046 27.8816 10.7227L25.0995 5.63873C24.9326 5.31547 24.557 5.18322 24.2509 5.31547L20.7872 6.78482C20.0638 6.21177 19.3127 5.71219 18.4363 5.34485L17.9216 1.45106C17.8933 1.27799 17.808 1.12108 17.6807 1.00812C17.5534 0.895163 17.3923 0.833453 17.2261 0.833926H11.6618C11.3141 0.833926 11.0219 1.09841 10.9663 1.45106L10.4516 5.34485C9.57523 5.71219 8.82405 6.21177 8.1007 6.78482L4.63695 5.31547C4.33092 5.18322 3.95533 5.31547 3.78841 5.63873L1.00628 10.7227C0.825442 11.046 0.908906 11.4427 1.17321 11.6631L4.10835 14.0581C4.05271 14.5577 4.01098 15.0426 4.01098 15.5275C4.01098 16.0124 4.05271 16.4826 4.10835 16.9528L1.17321 19.3919C0.908906 19.6123 0.825442 20.009 1.00628 20.3323L3.78841 25.4163C3.95533 25.7395 4.33092 25.8571 4.63695 25.7395L8.1007 24.2555C8.82405 24.8432 9.57523 25.3428 10.4516 25.7101L10.9663 29.6039C11.0219 29.9566 11.3141 30.2211 11.6618 30.2211H17.2261C17.5738 30.2211 17.866 29.9566 17.9216 29.6039L18.4363 25.7101C19.3127 25.3281 20.0638 24.8432 20.7872 24.2555L24.2509 25.7395C24.557 25.8571 24.9326 25.7395 25.0995 25.4163L27.8816 20.3323C28.0485 20.009 27.979 19.6123 27.7147 19.3919L24.7795 16.9528Z" fill="#8B8B8B"/>
</svg>
