<svg width="22" height="20" viewBox="0 0 22 20" fill="none" xmlns="http://www.w3.org/2000/svg">
<g id="ph:trash-light">
<path id="Vector" d="M18.5625 3.90625H14.9531V3.125C14.9531 2.66916 14.7539 2.23199 14.3994 1.90966C14.0448 1.58733 13.5639 1.40625 13.0625 1.40625H8.9375C8.43608 1.40625 7.95519 1.58733 7.60063 1.90966C7.24607 2.23199 7.04688 2.66916 7.04688 3.125V3.90625H3.4375C3.30075 3.90625 3.1696 3.95564 3.0729 4.04354C2.9762 4.13145 2.92188 4.25068 2.92188 4.375C2.92188 4.49932 2.9762 4.61855 3.0729 4.70646C3.1696 4.79436 3.30075 4.84375 3.4375 4.84375H4.29688V16.25C4.29688 16.5401 4.42363 16.8183 4.64926 17.0234C4.87489 17.2285 5.18091 17.3438 5.5 17.3438H16.5C16.8191 17.3438 17.1251 17.2285 17.3507 17.0234C17.5764 16.8183 17.7031 16.5401 17.7031 16.25V4.84375H18.5625C18.6993 4.84375 18.8304 4.79436 18.9271 4.70646C19.0238 4.61855 19.0781 4.49932 19.0781 4.375C19.0781 4.25068 19.0238 4.13145 18.9271 4.04354C18.8304 3.95564 18.6993 3.90625 18.5625 3.90625ZM8.07812 3.125C8.07812 2.9178 8.16867 2.71909 8.32983 2.57257C8.49099 2.42606 8.70958 2.34375 8.9375 2.34375H13.0625C13.2904 2.34375 13.509 2.42606 13.6702 2.57257C13.8313 2.71909 13.9219 2.9178 13.9219 3.125V3.90625H8.07812V3.125ZM16.6719 16.25C16.6719 16.2914 16.6538 16.3312 16.6215 16.3605C16.5893 16.3898 16.5456 16.4062 16.5 16.4062H5.5C5.45442 16.4062 5.4107 16.3898 5.37847 16.3605C5.34623 16.3312 5.32812 16.2914 5.32812 16.25V4.84375H16.6719V16.25ZM9.45312 8.125V13.125C9.45312 13.2493 9.3988 13.3685 9.3021 13.4565C9.2054 13.5444 9.07425 13.5938 8.9375 13.5938C8.80075 13.5938 8.6696 13.5444 8.5729 13.4565C8.4762 13.3685 8.42188 13.2493 8.42188 13.125V8.125C8.42188 8.00068 8.4762 7.88145 8.5729 7.79354C8.6696 7.70564 8.80075 7.65625 8.9375 7.65625C9.07425 7.65625 9.2054 7.70564 9.3021 7.79354C9.3988 7.88145 9.45312 8.00068 9.45312 8.125ZM13.5781 8.125V13.125C13.5781 13.2493 13.5238 13.3685 13.4271 13.4565C13.3304 13.5444 13.1993 13.5938 13.0625 13.5938C12.9257 13.5938 12.7946 13.5444 12.6979 13.4565C12.6012 13.3685 12.5469 13.2493 12.5469 13.125V8.125C12.5469 8.00068 12.6012 7.88145 12.6979 7.79354C12.7946 7.70564 12.9257 7.65625 13.0625 7.65625C13.1993 7.65625 13.3304 7.70564 13.4271 7.79354C13.5238 7.88145 13.5781 8.00068 13.5781 8.125Z" fill="#4ECB71"/>
</g>
</svg>
