<svg width="46" height="23" viewBox="0 0 46 23" fill="none" xmlns="http://www.w3.org/2000/svg">
<g id="logos:hipercard" clip-path="url(#clip0_88_1252)">
<path id="Vector" d="M12.628 0.5H7.86043C5.75395 0.609408 4.03201 1.541 3.53481 3.46221C3.27561 4.46424 3.13294 5.56454 2.93016 6.60327C1.89966 11.8846 0.985766 17.3112 0 22.4869H37.1162C39.9858 22.4869 41.9559 21.8211 42.4884 19.3205C42.7357 18.1587 42.9726 16.8428 43.2093 15.5665C44.1318 10.5902 45.0551 5.61406 46 0.5H12.628Z" fill="#B82126"/>
<path id="Vector_2" d="M31.7778 13.6361C31.263 14.1895 29.818 14.3466 29.9659 13.024C30.0886 11.9254 31.1779 11.6919 32.3584 11.8506C32.2707 12.4515 32.17 13.2145 31.7778 13.6362V13.6361ZM30.1516 9.35087C30.1026 9.65394 30.0271 9.9282 29.9659 10.218C30.5553 10.0559 32.3908 9.55834 32.5676 10.4222C32.6264 10.7092 32.525 11.0141 32.4514 11.2384C30.7917 11.0658 29.4389 11.3687 29.0832 12.6669C28.8448 13.5364 29.1099 14.3921 29.6175 14.6311C30.5951 15.0908 31.7842 14.564 32.1959 13.8403C32.1531 14.0908 32.1126 14.3439 32.1262 14.6565H32.9856C32.9948 13.7526 33.1146 13.021 33.2412 12.2077C33.3491 11.5152 33.5522 10.8294 33.5198 10.2181C33.4462 8.81823 31.334 9.31328 30.1516 9.35087ZM38.7698 14.0697C38.0973 14.0855 37.763 13.6286 37.7476 12.871C37.7209 11.5441 38.2509 10.0698 39.3273 9.93757C39.8284 9.87601 40.1912 10.004 40.5584 10.1417C40.2214 11.6322 40.343 14.0326 38.7698 14.0697ZM40.9997 7.05527C40.9142 7.87944 40.7997 8.67213 40.6514 9.42733C38.2012 8.57584 36.6986 10.5552 36.7256 12.9984C36.7309 13.471 36.8049 13.9396 37.0741 14.2737C37.5378 14.8499 38.8659 14.9876 39.5363 14.5034C39.6662 14.4097 39.7988 14.2392 39.8849 14.1208C39.9494 14.0317 40.052 13.7986 40.0705 13.8656C40.0354 14.1246 39.9827 14.3644 39.9777 14.6565H40.8837C41.0582 11.9063 41.5982 9.55726 41.9987 7.05518H40.9998L40.9997 7.05527ZM15.4244 13.6617C14.8899 14.2832 13.5762 14.2736 13.4732 13.228C13.4283 12.773 13.5827 12.2959 13.659 11.8251C13.7363 11.3486 13.7918 10.8915 13.868 10.4732C14.3944 9.76739 15.9411 9.68225 16.0981 10.8558C16.2343 11.8748 15.867 13.147 15.4244 13.6617ZM16.2142 9.35087C15.3688 9.00223 14.3384 9.41845 13.8918 9.81445C13.8933 9.83181 13.8812 9.83418 13.868 9.83556C13.8756 9.82846 13.8839 9.82145 13.8918 9.81445C13.8917 9.81299 13.8915 9.81153 13.8912 9.81011C13.8988 9.63973 13.9534 9.52115 13.961 9.35087H13.1015C12.7433 11.9675 12.3186 14.5109 11.8703 17.0286H12.8692C13.0137 16.0479 13.1092 15.0137 13.3106 14.0953C13.5387 15.0611 15.0281 14.8766 15.6567 14.5034C16.9536 13.7334 17.9539 10.0685 16.2142 9.35087ZM20.953 11.1874H18.6069C18.6811 10.5952 19.1663 9.94418 19.9309 9.91212C20.6504 9.88183 21.1656 10.2022 20.953 11.1874ZM20.0006 9.24886C19.2788 9.30993 18.6688 9.53792 18.2352 10.0396C17.7033 10.6548 17.2727 12.0149 17.3988 13.2536C17.5789 15.0207 19.5826 14.9573 21.1853 14.5289C21.2125 14.2188 21.2809 13.9537 21.3246 13.6617C20.6644 13.933 19.5181 14.3116 18.8391 13.8403C18.3265 13.4843 18.3234 12.5829 18.4907 11.7996C19.5678 11.762 20.6874 11.7692 21.766 11.7996C21.8344 11.2444 22.0303 10.639 21.8588 10.0907C21.6329 9.36666 20.8238 9.17931 20.0006 9.24886ZM11.2199 9.35087C11.1929 9.35521 11.1947 9.39132 11.1966 9.42733C10.9765 11.2348 10.6787 12.9569 10.3604 14.6565H11.3593C11.5992 12.8368 11.8742 11.0557 12.2187 9.35087H11.2199ZM37.2832 9.37632C36.4004 8.89173 35.6655 9.70494 35.3785 10.1926C35.4602 9.9424 35.4648 9.60747 35.541 9.35087H34.6583C34.4204 11.1727 34.1333 12.9407 33.7988 14.6565H34.8209C34.8273 13.9533 34.9531 13.4332 35.0531 12.7434C35.2668 11.2709 35.5803 9.65611 37.1438 10.1417C37.1957 9.89258 37.2173 9.61014 37.2832 9.37632ZM26.0634 13.4066C25.9714 13.1454 25.9475 12.714 25.9705 12.3863C26.0221 11.6491 26.2667 10.7519 26.6441 10.3457C27.165 9.78505 28.1934 9.87779 29.0135 10.1926C29.039 9.88903 29.0945 9.61832 29.1297 9.32542C27.7845 9.08421 26.508 9.23426 25.8311 10.014C25.1686 10.7775 24.7342 12.5321 25.0413 13.6361C25.4007 14.928 27.0119 14.9983 28.3167 14.5034C28.3744 14.2438 28.405 13.9543 28.4561 13.6871C27.7432 14.0939 26.3802 14.3053 26.0634 13.4066ZM25.506 9.35087C24.6202 8.95813 23.924 9.62188 23.6013 10.2437C23.6743 9.96707 23.7046 9.64309 23.7637 9.35087H22.881C22.6652 11.1886 22.3471 12.914 22.0447 14.6565H23.0437C23.1837 13.6221 23.2441 12.2278 23.5546 11.2384C23.8029 10.4478 24.4525 9.7742 25.3898 10.1417C25.4029 9.84997 25.479 9.6273 25.506 9.35087ZM9.40794 7.20829C9.26527 8.22493 9.10454 9.22183 8.94336 10.2181C7.90854 10.2301 6.85198 10.2743 5.8539 10.1925C6.0424 9.21788 6.17761 8.18448 6.36484 7.20819H5.24988C4.85071 9.69498 4.48774 12.2211 4.04211 14.6566H5.18025C5.35886 13.4072 5.52579 12.1451 5.76092 10.9581C6.7315 10.9317 7.8947 10.886 8.82728 10.9835C8.63502 12.2178 8.40259 13.4079 8.22335 14.6566H9.36158C9.72725 12.1333 10.1127 9.63164 10.5695 7.20839H9.40803L9.40794 7.20829ZM12.2419 8.33058C12.4411 8.18004 12.6975 7.49389 12.4045 7.20829C12.3117 7.11782 12.1564 7.09158 11.94 7.13183C11.739 7.16902 11.6235 7.2439 11.5451 7.3613C11.4187 7.55003 11.3031 8.11917 11.4985 8.33058C11.6888 8.53648 12.1152 8.42628 12.2419 8.33058Z" fill="white"/>
</g>
<defs>
<clipPath id="clip0_88_1252">
<rect width="46" height="22" fill="white" transform="translate(0 0.5)"/>
</clipPath>
</defs>
</svg>
