<svg width="46" height="33" viewBox="0 0 46 33" fill="none" xmlns="http://www.w3.org/2000/svg">
<g id="logos:mastercard" clip-path="url(#clip0_88_1244)">
<path id="Vector" d="M8.36262 32.836V30.6519C8.36262 29.8145 7.81026 29.2686 6.86348 29.2686C6.39018 29.2686 5.87736 29.4142 5.52229 29.8874C5.24629 29.487 4.85188 29.2686 4.26017 29.2686C3.86558 29.2686 3.47134 29.3777 3.15563 29.7781V29.3414H2.32727V32.836H3.15563V30.9066C3.15563 30.2879 3.51069 29.9965 4.06305 29.9965C4.61505 29.9965 4.89141 30.3242 4.89141 30.9066V32.836H5.71977V30.9066C5.71977 30.2879 6.11401 29.9965 6.62683 29.9965C7.17919 29.9965 7.45519 30.3242 7.45519 30.9066V32.836H8.36262ZM20.6301 29.3414H19.2891V28.2857H18.4607V29.3414H17.7112V30.0329H18.4605V31.6348C18.4605 32.4357 18.8156 32.9088 19.7624 32.9088C20.1174 32.9088 20.5116 32.7997 20.788 32.6541L20.5512 31.9988C20.3145 32.1444 20.0385 32.1808 19.8412 32.1808C19.4468 32.1808 19.2891 31.9624 19.2891 31.5983V30.0329H20.6301V29.3414ZM27.6515 29.2684C27.1782 29.2684 26.8627 29.487 26.6654 29.7781V29.3414H25.837V32.836H26.6654V30.8703C26.6654 30.2879 26.9414 29.9602 27.4542 29.9602C27.612 29.9602 27.8093 29.9967 27.9671 30.033L28.2037 29.305C28.0459 29.2686 27.8093 29.2686 27.6515 29.2686V29.2684ZM17.0406 29.6325C16.646 29.3777 16.0938 29.2686 15.5021 29.2686C14.5555 29.2686 13.9245 29.7053 13.9245 30.397C13.9245 30.9796 14.3978 31.3071 15.2261 31.4164L15.6206 31.4529C16.0545 31.5255 16.2911 31.6348 16.2911 31.8169C16.2911 32.0716 15.9756 32.2536 15.4233 32.2536C14.8711 32.2536 14.4371 32.0716 14.161 31.8897L13.7665 32.472C14.2005 32.7632 14.7922 32.9088 15.3837 32.9088C16.4883 32.9088 17.1195 32.4357 17.1195 31.7804C17.1195 31.1615 16.6067 30.8338 15.8177 30.7247L15.4233 30.6882C15.0682 30.6517 14.7922 30.5791 14.7922 30.3607C14.7922 30.1058 15.0682 29.9602 15.5021 29.9602C15.9756 29.9602 16.4489 30.1421 16.6856 30.2514L17.0406 29.6325ZM39.0514 29.2686C38.578 29.2686 38.2624 29.487 38.0651 29.7781V29.3414H37.2368V32.836H38.0651V30.8703C38.0651 30.2879 38.3413 29.9602 38.854 29.9602C39.0119 29.9602 39.2092 29.9967 39.367 30.033L39.6036 29.305C39.4459 29.2686 39.2092 29.2686 39.0514 29.2686ZM28.4799 31.0887C28.4799 32.1444 29.2687 32.9088 30.4917 32.9088C31.0438 32.9088 31.4383 32.7997 31.8327 32.5085L31.4383 31.8897C31.1227 32.108 30.8072 32.2172 30.4521 32.2172C29.7815 32.2172 29.3082 31.7804 29.3082 31.0887C29.3082 30.4335 29.7815 29.9965 30.4521 29.9602C30.8072 29.9602 31.1227 30.0693 31.4383 30.2879L31.8327 29.669C31.4383 29.3777 31.0438 29.2686 30.4917 29.2686C29.2687 29.2686 28.4799 30.033 28.4799 31.0887ZM36.1324 31.0887V29.3414H35.3041V29.7781C35.0279 29.4506 34.6335 29.2686 34.1206 29.2686C33.0556 29.2686 32.2273 30.033 32.2273 31.0887C32.2273 32.1444 33.0556 32.9088 34.1206 32.9088C34.6728 32.9088 35.0674 32.7269 35.3041 32.3992V32.836H36.1324V31.0887ZM33.095 31.0887C33.095 30.4698 33.5289 29.9602 34.2389 29.9602C34.9095 29.9602 35.3829 30.4335 35.3829 31.0887C35.3829 31.7076 34.9095 32.2172 34.2389 32.2172C33.5289 32.1807 33.095 31.7076 33.095 31.0887ZM23.1942 29.2686C22.0897 29.2686 21.3007 29.9965 21.3007 31.0887C21.3007 32.1808 22.0895 32.9088 23.2336 32.9088C23.7857 32.9088 24.3381 32.7632 24.772 32.4357L24.3774 31.8897C24.0619 32.108 23.6675 32.2536 23.2731 32.2536C22.7603 32.2536 22.2474 32.0352 22.129 31.4162H24.9298V31.1252C24.9693 29.9965 24.2594 29.2686 23.1942 29.2686ZM23.1942 29.9237C23.7069 29.9237 24.0621 30.2151 24.1408 30.7612H22.1685C22.2474 30.2879 22.6025 29.9237 23.1942 29.9237ZM43.7454 31.0887V27.958H42.9171V29.7781C42.6409 29.4506 42.2465 29.2686 41.7336 29.2686C40.6686 29.2686 39.8403 30.033 39.8403 31.0887C39.8403 32.1444 40.6686 32.9088 41.7336 32.9088C42.286 32.9088 42.6804 32.7269 42.9171 32.3992V32.836H43.7454V31.0887ZM40.7082 31.0887C40.7082 30.4698 41.1419 29.9602 41.8521 29.9602C42.5226 29.9602 42.9959 30.4335 42.9959 31.0887C42.9959 31.7076 42.5226 32.2172 41.8521 32.2172C41.1419 32.1807 40.7082 31.7076 40.7082 31.0887ZM13.0171 31.0887V29.3414H12.1887V29.7781C11.9125 29.4506 11.5181 29.2686 11.0053 29.2686C9.94027 29.2686 9.11191 30.033 9.11191 31.0887C9.11191 32.1444 9.94027 32.9088 11.0053 32.9088C11.5576 32.9088 11.9521 32.7269 12.1887 32.3992V32.836H13.0171V31.0887ZM9.94027 31.0887C9.94027 30.4698 10.3742 29.9602 11.0842 29.9602C11.7548 29.9602 12.2282 30.4335 12.2282 31.0887C12.2282 31.7076 11.7548 32.2172 11.0842 32.2172C10.3742 32.1807 9.94027 31.7076 9.94027 31.0887Z" fill="black"/>
<path id="Vector_2" d="M16.7645 2.80298H29.1899V23.4074H16.7645V2.80298Z" fill="#FF5F00"/>
<path id="Vector_3" d="M17.5535 13.1053C17.5535 8.91895 19.6835 5.20571 22.9574 2.80301C20.5514 1.05567 17.5141 0 14.2007 0C6.3507 0 0 5.8609 0 13.1053C0 20.3496 6.3507 26.2106 14.2005 26.2106C17.514 26.2106 20.5512 25.155 22.9574 23.4074C19.6835 21.0412 17.5535 17.2917 17.5535 13.1053Z" fill="#EB001B"/>
<path id="Vector_4" d="M45.9544 13.1053C45.9544 20.3496 39.6037 26.2106 31.7538 26.2106C28.4404 26.2106 25.4031 25.155 22.9969 23.4074C26.3104 21.0049 28.401 17.2917 28.401 13.1053C28.401 8.91895 26.2709 5.20571 22.9969 2.80301C25.403 1.05567 28.4404 0 31.7538 0C39.6037 0 45.9544 5.89738 45.9544 13.1053Z" fill="#F79E1B"/>
</g>
<defs>
<clipPath id="clip0_88_1244">
<rect width="46" height="33" fill="white"/>
</clipPath>
</defs>
</svg>
